<svg width="690" height="392" viewBox="0 0 690 392" fill="none" xmlns="http://www.w3.org/2000/svg">
<path d="M206.101 49.3326H163.541C160.534 49.3326 158.096 46.8951 158.096 43.8883V4.1275C158.096 1.84779 159.944 0 162.224 0H206.101C208.38 0 210.228 1.84779 210.228 4.1275V45.2051C210.228 47.4848 208.38 49.3326 206.101 49.3326Z" fill="#56DFED"/>
<path d="M185.791 23.4259L185.602 23.237C185.569 23.1998 185.525 23.1796 185.481 23.1796C185.437 23.1796 185.393 23.1998 185.359 23.2336L185.252 23.3415C185.245 23.3382 185.238 23.3348 185.231 23.3314C185.218 23.3247 185.208 23.3213 185.198 23.3145C185.096 23.2505 185.005 23.1661 184.918 23.0582C184.877 23.0076 184.847 22.9604 184.83 22.9199C184.857 22.8963 184.88 22.8693 184.904 22.8457C184.914 22.8355 184.924 22.8255 184.934 22.8153C184.972 22.7782 184.992 22.7343 184.992 22.6905C184.992 22.6466 184.972 22.6029 184.934 22.5657L184.84 22.4713C184.83 22.4612 184.82 22.451 184.81 22.4375C184.789 22.4173 184.766 22.3937 184.746 22.3735C184.712 22.3397 184.668 22.3195 184.624 22.3195C184.58 22.3195 184.54 22.3363 184.503 22.3735L184.385 22.4915C184.341 22.5353 184.314 22.5927 184.307 22.6568C184.3 22.758 184.327 22.8525 184.351 22.9132C184.405 23.0683 184.489 23.2066 184.614 23.355C184.766 23.5338 184.945 23.6755 185.154 23.7767C185.231 23.8138 185.339 23.8576 185.457 23.8678C185.464 23.8678 185.471 23.8678 185.481 23.8678C185.562 23.8678 185.629 23.8374 185.683 23.7801C185.683 23.7801 185.683 23.7801 185.687 23.7767C185.704 23.7564 185.724 23.7362 185.747 23.716C185.761 23.7025 185.778 23.6856 185.791 23.6721C185.862 23.5979 185.862 23.4967 185.791 23.4259ZM185.714 23.6013C185.7 23.6148 185.687 23.6283 185.673 23.6418C185.65 23.662 185.629 23.6856 185.606 23.7092C185.572 23.743 185.535 23.7598 185.484 23.7598C185.478 23.7598 185.474 23.7598 185.467 23.7598C185.366 23.7531 185.272 23.7126 185.204 23.6789C185.012 23.5844 184.843 23.4529 184.702 23.2842C184.587 23.1459 184.509 23.0144 184.455 22.876C184.422 22.7951 184.408 22.731 184.415 22.6669C184.418 22.6298 184.432 22.5961 184.462 22.5691L184.577 22.4544C184.587 22.4443 184.604 22.4308 184.624 22.4308C184.644 22.4308 184.658 22.4409 184.671 22.4544C184.692 22.4747 184.712 22.4949 184.732 22.5151C184.742 22.5252 184.752 22.5387 184.766 22.5489L184.86 22.6433C184.87 22.6534 184.884 22.6736 184.884 22.6905C184.884 22.7108 184.87 22.7276 184.86 22.7378C184.85 22.7479 184.84 22.758 184.83 22.7681C184.8 22.7985 184.773 22.8254 184.746 22.8524C184.746 22.8524 184.746 22.8524 184.742 22.8558C184.708 22.8895 184.715 22.9199 184.722 22.9401V22.9435C184.746 23.0042 184.783 23.0582 184.833 23.1256C184.928 23.2437 185.029 23.3348 185.14 23.4056C185.154 23.4157 185.171 23.4225 185.184 23.4292C185.198 23.436 185.208 23.4394 185.218 23.4461L185.221 23.4495C185.255 23.4664 185.289 23.4596 185.316 23.4326L185.434 23.3145C185.444 23.3044 185.461 23.291 185.481 23.291C185.498 23.291 185.515 23.3044 185.525 23.3145L185.714 23.5034C185.744 23.5338 185.744 23.5675 185.714 23.6013Z" fill="white"/>
<path d="M92.2057 51.0636H8.8659C7.144 51.0636 5.74855 49.6681 5.74855 47.9462C5.74855 46.2243 7.144 44.8289 8.8659 44.8289H92.2057C93.9276 44.8289 95.3231 46.2243 95.3231 47.9462C95.3231 49.6681 93.9276 51.0636 92.2057 51.0636Z" fill="#C98BD2"/>
<path d="M407.569 47.844H324.208C323.146 47.844 322.284 46.9821 322.284 45.9195V24.7338C322.284 23.6712 323.146 22.8093 324.208 22.8093H407.569C408.632 22.8093 409.494 23.6706 409.494 24.7332V45.9195C409.494 46.9821 408.632 47.844 407.569 47.844Z" fill="#FFB1A5"/>
<path d="M331.784 45.0116V54.7681L344.054 45.0116H331.784Z" fill="#FFB1A5"/>
<path d="M334.163 31.7288L381.872 31.7322" stroke="white" stroke-width="1.0974" stroke-miterlimit="10"/>
<path d="M334.162 37.7335L357.744 37.733" stroke="white" stroke-width="1.0974" stroke-miterlimit="10"/>
<path d="M525.571 254.636H485.12C483.399 254.636 482.003 253.24 482.003 251.518C482.003 249.796 483.399 248.4 485.12 248.4H525.571C527.293 248.4 528.688 249.796 528.688 251.518C528.688 253.24 527.293 254.636 525.571 254.636Z" fill="#56DFED"/>
<path d="M495.632 287.372H493.908C493.617 287.372 493.381 287.136 493.381 286.846V285.209C493.381 284.918 493.617 284.682 493.908 284.682H495.632C495.922 284.682 496.158 284.918 496.158 285.209V286.846C496.158 287.136 495.922 287.372 495.632 287.372Z" fill="#C98BD2"/>
<path d="M26.2512 307.632H26.242C26.2404 307.632 26.2392 307.631 26.2392 307.629V307.62C26.2392 307.619 26.2404 307.618 26.242 307.618H26.2512C26.2528 307.618 26.2541 307.619 26.2541 307.62V307.629C26.2541 307.631 26.2528 307.632 26.2512 307.632Z" fill="#FFB1A5"/>
<path d="M58.4234 101.402H468.856" stroke="#DED8D5" stroke-width="1.83024" stroke-miterlimit="10"/>
<path d="M464.689 328.436H62.5899C60.2885 328.436 58.4234 326.57 58.4234 324.269V78.6634C58.4234 76.362 60.2885 74.4969 62.5899 74.4969H464.689C466.991 74.4969 468.856 76.362 468.856 78.6634V324.269C468.856 326.57 466.991 328.436 464.689 328.436Z" stroke="#DED8D5" stroke-width="1.83024" stroke-miterlimit="10"/>
<path d="M85.4726 88.2237C85.4726 90.2971 83.7916 91.9775 81.7183 91.9775C79.6449 91.9775 77.9639 90.2971 77.9639 88.2237C77.9639 86.1504 79.6449 84.4694 81.7183 84.4694C83.7916 84.4694 85.4726 86.1504 85.4726 88.2237Z" fill="#FFB1A5"/>
<path d="M100.063 88.2237C100.063 90.2971 98.3823 91.9775 96.3089 91.9775C94.2356 91.9775 92.5546 90.2971 92.5546 88.2237C92.5546 86.1504 94.2356 84.4694 96.3089 84.4694C98.3823 84.4694 100.063 86.1504 100.063 88.2237Z" fill="#EAD254"/>
<path d="M114.654 88.2237C114.654 90.2971 112.973 91.9775 110.9 91.9775C108.826 91.9775 107.146 90.2971 107.146 88.2237C107.146 86.1504 108.826 84.4694 110.9 84.4694C112.973 84.4694 114.654 86.1504 114.654 88.2237Z" fill="#00857B"/>
<path d="M523.271 192.023H424.619C422.504 192.023 420.791 190.309 420.791 188.195V96.7926C420.791 94.6783 422.504 92.9647 424.619 92.9647H523.271C525.385 92.9647 527.098 94.6783 527.098 96.7926V188.195C527.098 190.309 525.385 192.023 523.271 192.023Z" fill="#EDEDED"/>
<path d="M523.271 192.023H424.619C422.504 192.023 420.791 190.309 420.791 188.195V96.7926C420.791 94.6783 422.504 92.9647 424.619 92.9647H523.271C525.385 92.9647 527.098 94.6783 527.098 96.7926V188.195C527.098 190.309 525.385 192.023 523.271 192.023Z" stroke="#DED8D5" stroke-width="1.83024" stroke-miterlimit="10"/>
<path d="M447.933 166.255H500.271C502.397 166.255 504.119 164.532 504.119 162.407V119.116C504.119 116.991 502.397 115.269 500.271 115.269H447.933C445.808 115.269 444.086 116.991 444.086 119.116V162.407C444.086 164.532 445.808 166.255 447.933 166.255Z" fill="#C98BD2"/>
<path d="M98.7337 266.726H4.65023C2.6344 266.726 1 265.09 1 263.075V180.78C1 178.764 2.6344 177.129 4.65023 177.129H98.7337C100.75 177.129 102.384 178.763 102.384 180.779V263.075C102.384 265.09 100.75 266.726 98.7337 266.726Z" fill="#EDEDED"/>
<path d="M98.7337 266.726H4.65023C2.6344 266.726 1 265.091 1 263.075V180.78C1 178.764 2.6344 177.129 4.65023 177.129H98.7337C100.75 177.129 102.384 178.763 102.384 180.779V263.075C102.384 265.091 100.75 266.726 98.7337 266.726Z" stroke="#DED8D5" stroke-width="1.83024" stroke-miterlimit="10"/>
<path d="M76.5237 249.464H26.3829C24.0399 249.464 22.141 247.565 22.141 245.222V196.716C22.141 194.373 24.0399 192.474 26.3829 192.474H76.5237C78.8667 192.474 80.7656 194.373 80.7656 196.716V245.222C80.7656 247.565 78.8667 249.464 76.5237 249.464Z" fill="#FFB1A5"/>
<path d="M62.2208 234.4C69.3052 228.682 70.4266 218.175 64.71 211.091C58.9927 204.007 48.4858 202.885 41.402 208.602C34.3177 214.318 33.1954 224.827 38.9128 231.91C44.6294 238.995 55.1363 240.117 62.2208 234.4ZM39.2037 229.541L44.4559 230.102C44.8064 231.808 45.3094 233.53 45.9699 235.27C43.155 234.077 40.8095 232.056 39.2037 229.541ZM57.7602 223.111C57.5302 225.24 57.0511 227.343 56.297 229.417L45.7545 228.292C45.4553 226.105 45.4312 223.948 45.6561 221.818L57.7602 223.111ZM45.9267 219.897C46.2997 217.783 46.9128 215.694 47.7412 213.629L57.4515 214.666C57.8251 216.86 57.9832 219.031 57.9012 221.176L45.9267 219.897ZM50.2231 236.37C49.4309 236.285 48.6599 236.14 47.9141 235.939C47.097 234.029 46.4985 232.143 46.102 230.278L55.5384 231.285C54.7576 233.025 53.773 234.742 52.571 236.437C51.7996 236.475 51.0154 236.454 50.2231 236.37ZM54.6127 236.193C55.6263 234.632 56.481 233.055 57.1839 231.461L62.4361 232.022C60.3354 234.141 57.6168 235.621 54.6127 236.193ZM63.9513 230.235L57.9354 229.592C58.6903 227.519 59.1948 225.418 59.4609 223.292L66.5454 224.049C66.1503 226.347 65.2413 228.444 63.9513 230.235ZM65.5219 215.528C66.4054 217.55 66.8503 219.792 66.7512 222.121L59.6369 221.362C59.7602 219.221 59.649 217.055 59.3155 214.865L65.5219 215.528ZM64.4184 213.46L58.9527 212.877C58.5866 211.149 58.0864 209.406 57.4566 207.65C60.3589 208.832 62.7751 210.888 64.4184 213.46ZM53.399 206.632C54.0591 206.702 54.7051 206.815 55.3333 206.967C56.0474 208.884 56.6269 210.787 57.055 212.674L48.55 211.766C49.3671 210.011 50.3353 208.274 51.4376 206.551C52.0844 206.535 52.7383 206.561 53.399 206.632ZM49.2178 206.77C48.2314 208.354 47.3745 209.951 46.6517 211.563L41.186 210.979C43.3356 208.812 46.1315 207.312 49.2178 206.77ZM39.6708 212.767L45.8772 213.43C45.0888 215.5 44.5227 217.594 44.1911 219.712L37.0774 218.952C37.4724 216.655 38.3802 214.557 39.6708 212.767ZM36.8715 220.88L43.956 221.637C43.7673 223.77 43.8162 225.93 44.116 228.117L38.1001 227.474C37.2173 225.451 36.7724 223.21 36.8715 220.88Z" fill="white"/>
<path d="M395.709 193.152C393.434 188.887 379.042 188.026 378.289 187.883C374.433 187.156 378.651 218.542 384.848 246.153C386.036 251.446 391.552 254.546 396.683 252.782C396.739 252.763 396.793 252.743 396.849 252.724C400.907 251.33 403.443 247.303 402.944 243.041C400.524 222.364 398.34 198.085 395.709 193.152Z" fill="#FFB1A5"/>
<path d="M398.356 204.58L379.494 210.422L378.382 201.589L397.728 198.175L398.356 204.58Z" fill="#F3978E"/>
<path d="M400.605 222.252C400.605 222.252 391.088 233.327 391.541 232.819C391.993 232.31 399.683 214.416 399.683 214.416L400.605 222.252Z" fill="#F3978E"/>
<path d="M434.816 260.674L399.267 240.429C394.6 237.771 388.657 239.665 386.388 244.533L386.388 244.534C384.123 249.394 386.482 255.153 391.506 257.027L432.415 272.288L434.816 260.674Z" fill="#FFB1A5"/>
<path d="M427.481 268.238C428.46 262.628 433.801 258.875 439.411 259.854C445.021 260.834 448.774 266.175 447.795 271.785C446.815 277.395 441.474 281.148 435.864 280.169C430.255 279.189 426.501 273.848 427.481 268.238Z" fill="#FFB1A5"/>
<path d="M444.822 276.594C444.822 276.594 448.116 278.98 449.452 273.737C450.789 268.495 449.461 262.432 439.411 259.854L444.822 276.594Z" fill="#FFB1A5"/>
<path d="M465.811 278.88L462.774 289.876C462.605 290.488 461.951 290.794 461.313 290.56L433.93 280.504C433.292 280.27 432.912 279.584 433.08 278.973L436.117 267.977C436.286 267.365 436.94 267.06 437.578 267.294L464.962 277.348C465.6 277.583 465.98 278.269 465.811 278.88Z" fill="#372F5F"/>
<path d="M466.123 277.827L463.086 288.823C462.917 289.434 462.263 289.74 461.625 289.506L434.241 279.451C433.603 279.217 433.224 278.531 433.392 277.919L436.429 266.924C436.598 266.312 437.252 266.006 437.89 266.24L465.273 276.296C465.911 276.53 466.292 277.216 466.123 277.827Z" fill="#261B43"/>
<path d="M463.367 277.022L460.699 286.684L438.381 278.489L441.05 268.827L463.367 277.022Z" fill="#E6E6E6"/>
<path d="M460.699 286.684L441.05 268.827L463.367 277.022L460.699 286.684Z" fill="white"/>
<path d="M449.88 270.643C449.88 270.643 449.753 273.014 448.867 275.262C448.476 276.253 447.483 276.872 446.424 276.761C445.458 276.66 444.654 275.976 444.4 275.039L442.963 269.746C442.963 269.746 437.722 267.616 436.662 264.019L445.643 266.193L449.88 270.643Z" fill="#FFB1A5"/>
<path d="M378.132 236.115L348.131 232.12L348.366 235.099L322.716 238.515C322.716 238.515 306.182 279.996 320.754 371.223H341.619L349.129 278.719H351.796L359.069 371.223H379.934C394.506 279.996 378.132 236.115 378.132 236.115Z" fill="#8E716C"/>
<path d="M339.589 278.719H361.358" stroke="#282828" stroke-width="1.14669" stroke-linecap="round" stroke-linejoin="round"/>
<path d="M357.515 151.573C356.914 151.57 396.1 156.995 402.566 201.671L382.232 204.787L378.132 238.515H321.408L310.146 176.198C310.146 176.198 322.713 158.187 346.048 151.573H357.515Z" fill="#56DFED"/>
<path d="M382.232 204.787L383.997 185.28" stroke="#282828" stroke-width="1.14669" stroke-linecap="round" stroke-linejoin="round"/>
<path d="M361.238 152.212V136.693H343.053V152.394C342.123 152.672 340.573 153.232 338.168 154.375L352.352 162.824L366.851 154.374C366.851 154.374 364.55 153.036 361.238 152.212Z" fill="#FFB1A5"/>
<path d="M342.884 138.589C342.884 138.589 346.151 147.261 354.87 146.512C362.882 145.824 361.607 133.806 361.607 133.806L342.884 138.589Z" fill="#282828"/>
<path d="M335.912 127.056C333.062 129.641 326.688 119.834 329.442 117.081C332.196 114.328 334.297 118.648 334.297 118.648L335.527 121.575L336.455 125.539L336.675 126.578L335.912 127.056Z" fill="#F3978E"/>
<path d="M330.773 120.555C330.773 120.555 332.931 119.585 334.847 122.712" stroke="#282828" stroke-width="0.92349" stroke-linecap="round" stroke-linejoin="round"/>
<path d="M368.184 126.838C370.805 129.655 377.985 120.423 375.474 117.447C372.962 114.471 370.504 118.597 370.504 118.597L369.031 121.409L367.771 125.281L367.464 126.297L368.184 126.838Z" fill="#F3978E"/>
<path d="M373.854 120.795C373.854 120.795 371.786 119.646 369.612 122.6" stroke="#282828" stroke-width="0.92349" stroke-linecap="round" stroke-linejoin="round"/>
<path d="M329.954 107.727C329.954 120.708 339.851 126.863 352.06 126.863C364.269 126.863 374.167 120.708 374.167 107.727C374.167 94.7454 364.269 85.9141 352.06 85.9141C339.851 85.9141 329.954 94.7454 329.954 107.727Z" fill="#282828"/>
<path d="M332.959 108.629C332.959 116.598 334.085 123.476 335.209 128.356C336.309 133.135 339.405 136.474 343.782 139.162L344.579 139.652C349.209 142.496 355.191 142.562 359.892 139.821C364.634 137.057 367.953 133.413 368.975 128.285C370.833 118.959 371.036 108.629 371.036 108.629C371.036 108.629 372.804 88.5119 352.269 88.903C331.734 89.294 332.959 108.629 332.959 108.629Z" fill="#FFB1A5"/>
<path d="M370.772 115.299C370.772 115.299 362.562 104.2 364.455 92.9557C364.455 92.9557 370.55 96.0219 372.137 103.937C373.724 111.852 370.772 115.299 370.772 115.299Z" fill="#282828"/>
<path d="M332.945 116.051C332.945 116.051 342.483 103.445 340.589 92.2006C340.589 92.2006 333.974 96.022 332.387 103.937C330.8 111.852 332.945 116.051 332.945 116.051Z" fill="#282828"/>
<path d="M370.083 97.3842C370.083 97.3842 359.541 108.925 330.698 106.95C330.698 106.95 335.115 90.0141 349.093 88.2104C349.093 88.2104 365.232 86.2834 370.083 97.3842Z" fill="#282828"/>
<path d="M383.115 83.8925C383.115 91.4984 376.949 97.6641 369.343 97.6641C361.737 97.6641 355.572 91.4984 355.572 83.8925C355.572 76.2867 361.737 70.121 369.343 70.121C376.949 70.121 383.115 76.2867 383.115 83.8925Z" fill="#282828"/>
<path d="M350.751 120.111V122.894C350.751 123.059 350.783 123.217 350.841 123.362C351.069 123.931 351.726 124.204 352.319 124.046L353.596 123.708" stroke="#282828" stroke-width="1.14576" stroke-linecap="round" stroke-linejoin="round"/>
<path d="M356.544 109.315L366.399 111.707C366.399 111.707 365.95 109.11 361.919 108.166C357.888 107.222 356.544 109.315 356.544 109.315Z" fill="#282828"/>
<path d="M347.486 109.315L337.281 111.707C337.281 111.707 337.745 109.11 341.919 108.166C346.094 107.222 347.486 109.315 347.486 109.315Z" fill="#282828"/>
<path d="M345.33 127.286H358.602C358.602 127.286 352.72 134.442 345.33 127.286Z" fill="white"/>
<path d="M350.204 117.479C350.204 121.521 346.927 124.798 342.885 124.798C338.843 124.798 335.566 121.521 335.566 117.479C335.566 113.437 338.843 110.16 342.885 110.16C346.927 110.16 350.204 113.437 350.204 117.479Z" stroke="#C98BD2" stroke-width="1.24806" stroke-miterlimit="10"/>
<path d="M368.184 117.479C368.184 121.521 364.907 124.798 360.865 124.798C356.823 124.798 353.546 121.521 353.546 117.479C353.546 113.437 356.823 110.16 360.865 110.16C364.907 110.16 368.184 113.437 368.184 117.479Z" stroke="#C98BD2" stroke-width="1.24806" stroke-miterlimit="10"/>
<path d="M350.204 117.479C350.204 117.479 351.938 115.861 353.546 117.479" stroke="#C98BD2" stroke-width="1.24806" stroke-miterlimit="10"/>
<path d="M335.566 117.479L333.26 117.421" stroke="#C98BD2" stroke-width="1.24806" stroke-miterlimit="10"/>
<path d="M368.184 117.479L370.503 117.421" stroke="#C98BD2" stroke-width="1.24806" stroke-miterlimit="10"/>
<path d="M345.33 116.812C345.33 117.76 344.56 118.528 343.609 118.528C342.658 118.528 341.888 117.76 341.888 116.812C341.888 115.864 342.658 115.095 343.609 115.095C344.56 115.095 345.33 115.864 345.33 116.812Z" fill="#282828"/>
<path d="M361.647 116.812C361.647 117.76 360.876 118.528 359.926 118.528C358.975 118.528 358.204 117.76 358.204 116.812C358.204 115.864 358.975 115.095 359.926 115.095C360.876 115.095 361.647 115.864 361.647 116.812Z" fill="#282828"/>
<path d="M198.759 111.255C195.281 107.176 192.494 102.415 190.122 95.7331C187.576 88.5596 179.275 91.4892 179.275 91.4892C179.275 91.4892 172.343 82.5984 161.935 85.7137C151.527 88.8291 147.92 96.2441 147.721 105.054C147.521 113.864 140.594 115.252 135.273 125.45C125.88 143.455 141.761 158.586 170.624 154.34L170.662 154.06C173.506 154.919 176.991 155.29 181.244 155.031C215.921 152.922 212.538 127.418 198.759 111.255Z" fill="#282828"/>
<path d="M201.228 236.083L175.578 232.668L175.812 229.689L145.811 233.683C145.811 233.683 129.437 277.564 144.009 368.792H164.875L172.148 276.288H174.815L182.325 368.792H203.19C217.762 277.564 201.228 236.083 201.228 236.083Z" fill="#282828"/>
<path d="M179.728 157.811H161.543V134.262H179.728V157.811Z" fill="#FFB1A5"/>
<path d="M158.889 132.793C158.889 132.793 163.951 142.897 170.178 144.474C171.842 144.895 173.619 144.75 175.223 144.182C177.568 143.351 180.54 139.856 181.045 135.989L181.28 133.78C181.28 133.78 170.198 139.814 158.889 132.793Z" fill="#282828"/>
<path d="M162.626 153.934C163.226 153.93 127.844 154.564 121.378 199.24L141.711 202.355L145.811 236.083H202.536L213.798 173.767C213.798 173.767 205.791 160.265 182.456 153.651L162.626 153.934Z" fill="#00857B"/>
<path d="M145.332 159.334C145.332 159.334 150.332 165.972 170.819 165.972C191.116 165.972 196.307 158.986 196.307 158.986C196.307 158.986 184.342 152.301 170.457 150.138C170.457 150.138 158.059 152.347 145.332 159.334Z" fill="#FFB1A5"/>
<path d="M129.1 291.586C128.71 292.263 148.567 184.385 141.39 186.308C140.735 186.484 128.097 188.202 126.374 192.117C121.38 203.465 121.181 291.11 121.181 291.11L129.1 291.586Z" fill="#FFB1A5"/>
<path d="M121.181 291.11C121.181 291.11 118.024 309.528 132.979 310.89C133.963 310.98 134.886 310.362 135.169 309.414L135.206 309.288C135.518 308.242 134.954 307.157 133.94 306.755C131.47 305.774 127.592 303.195 129.193 296.897C129.193 296.897 131.331 296.541 132.688 300.5C133.037 301.518 134.217 301.988 135.157 301.463C135.799 301.105 136.138 300.384 136.015 299.659C135.539 296.866 133.838 290.167 128.341 288.583L121.181 291.11Z" fill="#FFB1A5"/>
<path d="M125.151 291.646C124.724 292.301 147.504 200.248 140.233 201.774C139.584 201.919 127.365 198.622 126.853 199.813C121.943 211.197 117.269 290.737 117.269 290.737L125.151 291.646Z" fill="#FFB1A5"/>
<path d="M117.269 290.737C117.269 290.737 113.105 308.953 127.962 311.135C128.941 311.279 129.896 310.713 130.23 309.781L130.275 309.657C130.643 308.63 130.14 307.516 129.149 307.059C126.737 305.944 123.007 303.156 124.952 296.954C124.952 296.954 127.106 296.717 128.243 300.744C128.536 301.781 129.688 302.314 130.656 301.842C131.316 301.519 131.695 300.818 131.611 300.088C131.29 297.272 129.96 290.49 124.558 288.607L117.269 290.737Z" fill="#FFB1A5"/>
<path d="M187.691 124.461C190.565 127.019 196.846 117.152 194.065 114.426C191.285 111.699 189.226 116.038 189.226 116.038L188.024 118.976L187.134 122.95L186.923 123.99L187.691 124.461Z" fill="#F3978E"/>
<path d="M192.767 117.911C192.767 117.911 190.601 116.962 188.714 120.108" stroke="#282828" stroke-width="0.92349" stroke-linecap="round" stroke-linejoin="round"/>
<path d="M153.981 124.485C151.386 127.327 144.118 118.164 146.601 115.164C149.084 112.164 151.582 116.266 151.582 116.266L153.082 119.065L154.378 122.925L154.695 123.937L153.981 124.485Z" fill="#F3978E"/>
<path d="M148.253 118.497C148.253 118.497 150.31 117.328 152.512 120.261" stroke="#282828" stroke-width="0.92349" stroke-linecap="round" stroke-linejoin="round"/>
<path d="M192.506 105.085C192.63 118.065 182.791 124.316 170.583 124.432C158.375 124.548 148.419 118.487 148.296 105.506C148.172 92.5256 157.984 83.6004 170.193 83.484C182.401 83.3676 192.382 92.1042 192.506 105.085Z" fill="#282828"/>
<path d="M189.51 106.017C189.586 113.985 188.525 120.873 187.448 125.764C186.393 130.553 183.329 133.922 178.978 136.651L178.186 137.148C173.583 140.036 167.602 140.16 162.875 137.464L162.875 137.464C158.108 134.745 154.753 131.132 153.683 126.015C151.736 116.706 151.434 106.38 151.434 106.38C151.434 106.38 149.475 86.2795 170.013 86.4748C190.551 86.6701 189.51 106.017 189.51 106.017Z" fill="#FFB1A5"/>
<path d="M169.157 118.782L169.173 120.435C169.174 120.6 169.208 120.757 169.267 120.901C169.501 121.466 170.16 121.731 170.752 121.569L172.026 121.219" stroke="#282828" stroke-width="1.1439" stroke-linecap="round" stroke-linejoin="round"/>
<path d="M173.332 107.836L184.281 110.318C184.281 110.318 183.758 107.515 179.279 106.538C174.8 105.56 173.332 107.836 173.332 107.836Z" fill="#282828"/>
<path d="M167.596 107.891L156.555 110.582C156.555 110.582 157.032 107.77 161.549 106.706C166.066 105.643 167.596 107.891 167.596 107.891Z" fill="#282828"/>
<path d="M162.653 124.508L177.758 124.364C177.758 124.364 176.732 128.524 169.883 128.589C164.666 128.639 162.653 124.508 162.653 124.508Z" fill="white"/>
<path d="M151.762 113.046C151.762 113.046 159.866 101.87 157.865 90.6435C157.865 90.6435 151.801 93.7683 150.289 101.698C148.778 109.628 151.762 113.046 151.762 113.046Z" fill="#282828"/>
<path d="M189.584 112.316C189.584 112.316 179.937 100.924 181.724 89.6614C181.724 89.6614 188.375 93.4197 190.037 101.319C191.7 109.219 189.584 112.316 189.584 112.316Z" fill="#282828"/>
<path d="M152.28 95.1255C152.28 95.1255 161.82 107.698 190.644 105.448C190.644 105.448 187.177 87.4224 173.182 85.752C173.182 85.752 157.024 83.9789 152.28 95.1255Z" fill="#282828"/>
<path d="M163.697 114.709C163.706 115.654 162.943 116.428 161.992 116.437C161.042 116.446 160.264 115.687 160.255 114.742C160.246 113.797 161.009 113.024 161.96 113.015C162.911 113.006 163.688 113.764 163.697 114.709Z" fill="#282828"/>
<path d="M180.013 114.554C180.022 115.499 179.259 116.272 178.308 116.281C177.357 116.29 176.58 115.532 176.571 114.587C176.562 113.642 177.325 112.868 178.276 112.859C179.226 112.85 180.004 113.609 180.013 114.554Z" fill="#282828"/>
<path d="M156.275 245.95C156.275 245.95 165.1 270.518 179.299 266.274C193.499 262.029 214.001 229.821 214.001 229.821L205.631 177.585L168.349 229.941L156.275 245.95Z" fill="#FFB1A5"/>
<path d="M179.911 213.679C179.911 213.679 194.878 233.409 206.989 239.931L214.001 229.821L183.139 208.938L179.911 213.679Z" fill="#F3978E"/>
<path d="M132.603 184.927L175.126 226.72C175.126 226.72 188.426 233.937 179.764 249.111C173.013 260.938 165.19 261.48 165.19 261.48C165.19 261.48 133.537 222.991 117.559 192.855L132.603 184.927Z" fill="#FFB1A5"/>
<path d="M134.17 186.878C134.17 186.878 120.91 194.98 117.376 192.334C111.201 187.711 105.63 170.203 105.63 170.203C105.63 170.203 130.588 159.806 130.364 160.186C130.139 160.567 134.17 186.878 134.17 186.878Z" fill="#FFB1A5"/>
<path d="M134.17 186.878C133.884 185.525 138.635 170.66 140.248 165.092C140.636 163.748 139.671 162.323 138.22 162.097C137.275 161.949 135.792 162.115 135.136 163.485L129.164 174.542L134.17 186.878Z" fill="#FFB1A5"/>
<path d="M133.164 171.019L128.069 149.504C127.761 148.071 126.278 147.127 124.842 147.45C123.6 147.729 122.813 148.872 123.003 150.121L125.453 166.187L133.164 171.019Z" fill="#FFB1A5"/>
<path d="M124.231 163.324L117.789 148.057C117.254 146.719 115.703 146.021 114.372 146.518C113.218 146.948 112.604 148.146 112.922 149.345L117.921 167.071L124.231 163.324Z" fill="#FFB1A5"/>
<path d="M118.032 168.103L110.031 153.158C109.296 151.771 107.565 151.175 106.184 151.832C104.886 152.45 104.354 153.963 104.964 155.3L111.419 169.446L118.032 168.103Z" fill="#FFB1A5"/>
<path d="M105.63 170.203L99.44 161.092C98.9159 160.013 99.3228 158.77 100.37 158.247C101.372 157.748 102.641 158.07 103.333 159.001L111.419 169.446L105.63 170.203Z" fill="#FFB1A5"/>
<path d="M131.925 169.431C131.925 169.431 123.076 168.808 122.573 180.588" stroke="#282828" stroke-width="1.42476" stroke-linecap="round" stroke-linejoin="round"/>
<path d="M240.014 151.922C240.014 151.922 199.635 160.021 177.124 206.19C177.124 206.19 189.594 225.983 210.119 235.135L224.402 218.461C224.402 218.461 239.622 201.92 242.302 195.179C256.291 159.984 240.014 151.922 240.014 151.922Z" fill="#C98BD2"/>
<path d="M215.556 299.789L213.49 388.863L257.556 389.91L263.056 300.917L215.556 299.789Z" fill="#005683"/>
<path d="M311.233 302.06L309.069 391.132L265.004 390.086L263.732 300.932L311.233 302.06Z" fill="#005683"/>
<path d="M286.431 332.434L240.87 331.352L241.605 300.407L287.166 301.489L286.431 332.434Z" fill="#005683"/>
<path d="M247.234 331.503L278.66 332.249" stroke="#282828" stroke-width="1.29921" stroke-linecap="round" stroke-linejoin="round"/>
<path d="M340.916 224.988C342.931 255.235 339.527 277.159 339.006 332.717L312.679 333.195L311.228 229.142L340.916 224.988Z" fill="#FFB1A5"/>
<path d="M314.029 247.916C314.029 247.916 330.351 246.812 341.66 239.731L341.52 233.26L314.295 236.311L314.029 247.916Z" fill="#F3978E"/>
<path d="M290.109 154.25C290.109 154.25 341.532 168.488 349.347 234.374C349.347 234.374 323.767 244.75 298.506 239.426L304.736 217.599L290.109 154.25Z" fill="#C98BD2"/>
<path d="M240.017 151.777C224.137 159.452 214.021 169.89 214.021 169.89L213.877 306.41L312.746 308.758L315.648 173.007C315.648 173.007 303.474 160.516 290.109 154.25C278.756 148.927 251.306 146.321 240.017 151.777Z" fill="#C98BD2"/>
<path d="M288.284 219.447L282.161 219.302C276.257 219.161 271.584 214.262 271.724 208.358L272.123 191.544L299.628 192.197L299.228 209.011C299.088 214.915 294.188 219.587 288.284 219.447Z" stroke="#282828" stroke-width="1.29921" stroke-linecap="round" stroke-linejoin="round"/>
<path d="M314.209 240.305L316.552 195.7" stroke="#282828" stroke-width="1.29921" stroke-linecap="round" stroke-linejoin="round"/>
<path d="M214.102 230.485L212.884 191.743" stroke="#282828" stroke-width="1.29921" stroke-linecap="round" stroke-linejoin="round"/>
<path d="M279.919 148.968L280.741 114.345L248.824 113.588L248.002 148.21L238.398 152.316C238.398 152.316 240.286 166.718 263.844 167.596C287.403 168.473 290.109 154.25 290.109 154.25L279.919 148.968Z" fill="#FFB1A5"/>
<path d="M248.814 124.083C248.814 124.083 251.166 137.709 262.931 139.547C276.473 141.663 280.484 125.18 280.484 125.18C280.484 125.18 274.303 132.559 264.81 132.345C254.223 132.106 248.814 124.083 248.814 124.083Z" fill="#282828"/>
<path d="M243.559 100.682L241.143 80.0148C241.049 78.3401 240.62 75.7321 241.606 73.3971C243.239 69.5336 248.656 62.3044 256.539 66.4775L257.636 74.6717C257.636 74.6717 249.005 75.6776 244.675 86.4992L243.559 100.682Z" fill="#282828"/>
<path d="M255.588 70.6228C255.217 73.2808 251.887 84.7691 243.245 88.3362C243.245 88.3362 237.283 72.1656 255.588 70.6228Z" fill="#282828"/>
<path d="M256.539 66.4774C256.539 66.4774 263.661 51.5599 280.985 61.2483C291.47 67.1121 293.969 74.0111 294.876 78.8279C295.177 80.4283 295.144 82.9074 294.905 84.3608L288.846 104.453L274.199 74.7364L257.636 74.6715L256.539 66.4774Z" fill="#282828"/>
<path d="M288.846 104.453C288.846 104.453 291.275 101.22 295.559 103.266C299.843 105.313 296.947 115.89 290.197 116.707C290.197 116.707 287.775 117.028 286.045 115.244C286.045 115.244 288.338 107.443 288.846 104.453Z" fill="#F3978E"/>
<path d="M294.366 106.984C294.366 106.984 290.763 105.439 287.678 110.677" stroke="#282828" stroke-width="1.29921" stroke-linecap="round" stroke-linejoin="round"/>
<path d="M243.559 100.682C243.559 100.682 241.698 97.0917 237.134 98.4011C232.57 99.7105 233.677 110.621 240.199 112.543C240.199 112.543 242.535 113.261 244.536 111.787C244.536 111.787 243.565 103.715 243.559 100.682Z" fill="#F3978E"/>
<path d="M237.696 102.265C237.696 102.265 241.505 101.337 243.68 107.013" stroke="#282828" stroke-width="1.29921" stroke-linecap="round" stroke-linejoin="round"/>
<path d="M290.138 94.2941C289.6 100.771 287.836 114.269 283.185 121.981C278.817 129.221 272.296 132.77 264.169 132.337C256.042 131.904 250.263 128.277 246.239 118.073C242.215 107.87 243.889 90.564 243.889 90.564C243.889 90.564 245.816 67.4259 268.684 69.3302C292.77 71.3359 290.138 94.2941 290.138 94.2941Z" fill="#FFB1A5"/>
<path d="M264.588 101.839L264.142 107.194C264.122 107.424 264.148 107.649 264.212 107.857C264.463 108.677 265.345 109.133 266.189 108.982L268.003 108.658" stroke="#282828" stroke-width="1.29921" stroke-linecap="round" stroke-linejoin="round"/>
<path d="M257.565 112.079C257.565 112.079 259.498 113.834 264.928 114.286C269.867 114.697 273.082 113.371 273.082 113.371" stroke="#282828" stroke-width="1.29921" stroke-linecap="round" stroke-linejoin="round"/>
<path d="M264.2 99.8445C263.793 104.73 259.503 108.361 254.618 107.954C249.732 107.547 246.101 103.257 246.508 98.3712C246.915 93.4856 251.205 89.8549 256.091 90.2618C260.977 90.6686 264.607 94.9589 264.2 99.8445Z" stroke="white" stroke-width="1.81443" stroke-miterlimit="10"/>
<path d="M285.932 101.654C285.525 106.54 281.235 110.17 276.349 109.764C271.464 109.357 267.833 105.067 268.24 100.181C268.647 95.2953 272.937 91.6646 277.822 92.0715C282.708 92.4783 286.339 96.7686 285.932 101.654Z" stroke="white" stroke-width="1.81443" stroke-miterlimit="10"/>
<path d="M264.2 99.8445C264.2 99.8445 266.459 98.0636 268.24 100.181" stroke="white" stroke-width="1.81443" stroke-miterlimit="10"/>
<path d="M246.508 98.3714L243.548 98.0492" stroke="white" stroke-width="1.81443" stroke-miterlimit="10"/>
<path d="M285.932 101.654L289.248 101.876" stroke="white" stroke-width="1.81443" stroke-miterlimit="10"/>
<path d="M253.038 70.942C253.038 70.942 256.282 83.3656 275.482 84.5913C288.528 85.4245 290.857 95.1092 290.857 95.1092C290.857 95.1092 290.344 73.8485 289.731 73.9975C289.119 74.1466 270.338 67.2175 270.338 67.2175L253.038 70.942Z" fill="#282828"/>
<path d="M258.047 98.7198C257.951 99.8698 256.942 100.724 255.792 100.628C254.642 100.532 253.787 99.5231 253.883 98.3731C253.979 97.2232 254.989 96.3686 256.139 96.4644C257.289 96.5602 258.142 97.5699 258.047 98.7198Z" fill="#282828"/>
<path d="M277.565 100.345C277.469 101.495 276.46 102.349 275.31 102.253C274.16 102.158 273.306 101.148 273.401 99.9985C273.497 98.8486 274.507 97.994 275.657 98.0898C276.807 98.1855 277.661 99.1953 277.565 100.345Z" fill="#282828"/>
<path d="M271.229 86.8242L284.925 91.6058C284.925 91.6058 284.616 87.6267 279.009 85.723C273.402 83.8193 271.229 86.8242 271.229 86.8242Z" fill="#282828"/>
<path d="M262.532 86.0999L248.233 88.5503C248.233 88.5503 249.196 84.6772 255.041 83.7271C260.886 82.777 262.532 86.0999 262.532 86.0999Z" fill="#282828"/>
</svg>
